<svg width="24" height="21" viewBox="0 0 24 21" fill="none" xmlns="http://www.w3.org/2000/svg">
<path d="M21.75 19.5H2.25C1.005 19.5 0 18.495 0 17.25V3.75C0 2.505 1.005 1.5 2.25 1.5H21.75C22.995 1.5 24 2.505 24 3.75V17.25C24 18.495 22.995 19.5 21.75 19.5ZM2.25 3C1.83 3 1.5 3.33 1.5 3.75V17.25C1.5 17.67 1.83 18 2.25 18H21.75C22.17 18 22.5 17.67 22.5 17.25V3.75C22.5 3.33 22.17 3 21.75 3H2.25Z" fill="black"/>
<path d="M12.0001 13.4399C10.9501 13.4399 9.99013 13.0199 9.27013 12.2549L1.39513 3.88493C1.11013 3.58493 1.12513 3.10493 1.42513 2.81993C1.72513 2.53493 2.20513 2.54993 2.49013 2.84993L10.3651 11.2199C11.2201 12.1349 12.7801 12.1349 13.6351 11.2199L21.5101 2.86493C21.7951 2.56493 22.2751 2.54993 22.5751 2.83493C22.8751 3.11993 22.8901 3.59993 22.6051 3.89993L14.7301 12.2699C14.0101 13.0349 13.0501 13.4549 12.0001 13.4549V13.4399Z" fill="black"/>
</svg>
