<svg width="24" height="24" viewBox="0 0 24 24" fill="none" xmlns="http://www.w3.org/2000/svg">
<path d="M11.9998 1.5C14.7847 1.5 17.4557 2.60633 19.4249 4.5756C21.3942 6.54487 22.5005 9.21578 22.5005 12.0007C22.5005 14.7857 21.3942 17.4566 19.4249 19.4259C17.4557 21.3952 14.7847 22.5015 11.9998 22.5015C9.2148 22.5015 6.54389 21.3952 4.57462 19.4259C2.60535 17.4566 1.49902 14.7857 1.49902 12.0007C1.49902 9.21578 2.60535 6.54487 4.57462 4.5756C6.54389 2.60633 9.2148 1.5 11.9998 1.5ZM13.5748 7.947C14.3548 7.947 14.9878 7.4055 14.9878 6.603C14.9878 5.8005 14.3533 5.259 13.5748 5.259C12.7948 5.259 12.1648 5.8005 12.1648 6.603C12.1648 7.4055 12.7948 7.947 13.5748 7.947ZM13.8493 16.3875C13.8493 16.227 13.9048 15.81 13.8733 15.573L12.6403 16.992C12.3853 17.2605 12.0658 17.4465 11.9158 17.397C11.8477 17.372 11.7908 17.3235 11.7554 17.2602C11.7199 17.197 11.7082 17.1231 11.7223 17.052L13.7773 10.56C13.9453 9.7365 13.4833 8.985 12.5038 8.889C11.4703 8.889 9.94927 9.9375 9.02377 11.268C9.02377 11.427 8.99377 11.823 9.02527 12.06L10.2568 10.6395C10.5118 10.374 10.8088 10.1865 10.9588 10.2375C11.0327 10.264 11.0932 10.3185 11.1274 10.3891C11.1617 10.4598 11.1668 10.5411 11.1418 10.6155L9.10477 17.076C8.86927 17.832 9.31477 18.573 10.3948 18.741C11.9848 18.741 12.9238 17.718 13.8508 16.3875H13.8493Z" fill="black"/>
</svg>
