<svg width="24" height="24" viewBox="0 0 24 24" fill="none" xmlns="http://www.w3.org/2000/svg">
<g clip-path="url(#clip0_566_516)">
<path d="M12.0671 7.33325C9.46706 7.33325 7.40039 9.39992 7.40039 11.9999C7.40039 14.5999 9.46706 16.6666 12.0671 16.6666C14.6671 16.6666 16.7337 14.5999 16.7337 11.9999C16.7337 9.39992 14.6671 7.33325 12.0671 7.33325ZM12.0671 15.3333C10.2004 15.3333 8.73372 13.8666 8.73372 11.9999C8.73372 10.1333 10.2004 8.66659 12.0671 8.66659C13.9337 8.66659 15.4004 10.1333 15.4004 11.9999C15.4004 13.8666 13.9337 15.3333 12.0671 15.3333Z" fill="black"/>
<path d="M21.8663 9.79992L19.9997 9.19992L19.5997 8.19992L20.533 6.46659C20.733 6.06659 20.6663 5.53325 20.333 5.19992L18.733 3.59992C18.3997 3.26659 17.8663 3.19992 17.4663 3.39992L15.733 4.33325L14.733 3.93325L14.133 2.06659C13.9997 1.66659 13.5997 1.33325 13.133 1.33325H10.8663C10.3997 1.33325 9.99967 1.66659 9.93301 2.13325L9.33301 3.99992C8.93301 4.06659 8.59967 4.19992 8.26634 4.39992L6.53301 3.46659C6.13301 3.26659 5.59967 3.33325 5.26634 3.66659L3.66634 5.26659C3.33301 5.59992 3.26634 6.13325 3.46634 6.53325L4.33301 8.19992C4.19967 8.53325 4.06634 8.93325 3.93301 9.26659L2.06634 9.86659C1.66634 9.99992 1.33301 10.3999 1.33301 10.8666V13.1333C1.33301 13.5999 1.66634 13.9999 2.13301 14.1333L3.99967 14.7333L4.39967 15.7333L3.46634 17.4666C3.26634 17.8666 3.33301 18.3999 3.66634 18.7333L5.26634 20.3333C5.59967 20.6666 6.13301 20.7333 6.53301 20.5333L8.26634 19.5999L9.26634 19.9999L9.86634 21.9333C9.99967 22.3333 10.3997 22.6666 10.8663 22.6666H13.133C13.5997 22.6666 13.9997 22.3333 14.133 21.9333L14.733 19.9999L15.733 19.5999L17.4663 20.5333C17.8663 20.7333 18.3997 20.6666 18.733 20.3333L20.333 18.7333C20.6663 18.3999 20.733 17.8666 20.533 17.4666L19.5997 15.7333L19.9997 14.7333L21.933 14.1333C22.333 13.9999 22.6663 13.5999 22.6663 13.1333V10.8666C22.6663 10.3999 22.333 9.93325 21.8663 9.79992ZM21.333 12.9333L18.933 13.6666L18.8663 13.9999L18.2663 15.3999L18.0663 15.7333L19.2663 17.9333L17.933 19.2666L15.733 18.0666L15.3997 18.2666C14.933 18.5333 14.4663 18.7333 13.9997 18.8666L13.6663 18.9333L12.933 21.3333H11.0663L10.333 18.9333L9.99967 18.8666L8.59967 18.2666L8.26634 18.0666L6.06634 19.2666L4.73301 17.9333L5.93301 15.7333L5.73301 15.3999C5.46634 14.9333 5.26634 14.4666 5.13301 13.9999L5.06634 13.6666L2.66634 12.9333V11.0666L4.93301 10.3999L5.06634 10.0666C5.19967 9.53325 5.39967 9.06659 5.66634 8.59992L5.86634 8.26659L4.73301 6.06659L6.06634 4.73325L8.19967 5.93325L8.53301 5.73325C8.99967 5.46659 9.46634 5.26659 9.99967 5.13325L10.333 4.99992L11.0663 2.66659H12.933L13.6663 4.99992L13.9997 5.13325C14.4663 5.26659 14.933 5.46659 15.3997 5.73325L15.733 5.93325L17.933 4.73325L19.2663 6.06659L18.0663 8.26659L18.2663 8.59992C18.533 9.06659 18.733 9.53325 18.8663 9.99992L18.933 10.3333L21.333 11.0666V12.9333Z" fill="black"/>
</g>
<defs>
<clipPath id="clip0_566_516">
<rect width="24" height="24" fill="white"/>
</clipPath>
</defs>
</svg>
