<svg width="24" height="24" viewBox="0 0 24 24" fill="none" xmlns="http://www.w3.org/2000/svg">
<path d="M7.84615 5.53857C2.30769 5.53857 0 6.28904 0 6.89457V17.077C0 17.6687 2.30769 18.4617 7.84615 18.4617C13.3846 18.4617 15.6923 17.7112 15.6923 17.1057V6.92319C15.6923 6.3315 13.3846 5.53857 7.84615 5.53857ZM23.4231 5.56719C23.2679 5.57337 23.1178 5.62364 22.9902 5.71211L16.9902 9.57704C16.7594 9.75057 16.6154 10.0367 16.6154 10.3275V13.6727C16.6154 13.9635 16.7594 14.2487 16.9902 14.4232L22.9902 18.289C23.1526 18.4118 23.9428 18.7967 23.9428 17.5386V6.46165C23.9428 5.73519 23.6926 5.55611 23.4231 5.56719Z" fill="black"/>
</svg>
